<mxfile host="Electron" agent="Mozilla/5.0 (Windows NT 10.0; Win64; x64) AppleWebKit/537.36 (KHTML, like Gecko) draw.io/27.0.9 Chrome/134.0.6998.205 Electron/35.4.0 Safari/537.36" version="27.0.9">
  <diagram name="Page-1" id="GOW2shGQ0djGZbfntSRo">
    <mxGraphModel dx="1426" dy="889" grid="1" gridSize="10" guides="1" tooltips="1" connect="1" arrows="1" fold="1" page="1" pageScale="1" pageWidth="850" pageHeight="1100" math="0" shadow="0">
      <root>
        <mxCell id="0" />
        <mxCell id="1" parent="0" />
        <mxCell id="tqkfEehtVtc8zdsrbR30-1" value="" style="rounded=0;whiteSpace=wrap;html=1;fillColor=none;strokeColor=light-dark(#616161, #ededed);dashed=1;" vertex="1" parent="1">
          <mxGeometry x="30" y="110" width="110" height="450" as="geometry" />
        </mxCell>
        <mxCell id="tqkfEehtVtc8zdsrbR30-3" value="&lt;font style=&quot;font-size: 18px;&quot;&gt;Sources&lt;/font&gt;" style="rounded=0;whiteSpace=wrap;html=1;strokeColor=none;" vertex="1" parent="1">
          <mxGeometry x="35" y="100" width="100" height="30" as="geometry" />
        </mxCell>
        <mxCell id="tqkfEehtVtc8zdsrbR30-4" value="" style="rounded=0;whiteSpace=wrap;html=1;fillColor=none;strokeColor=light-dark(#6b6b6b, #ededed);dashed=1;" vertex="1" parent="1">
          <mxGeometry x="150" y="110" width="480" height="450" as="geometry" />
        </mxCell>
        <mxCell id="tqkfEehtVtc8zdsrbR30-5" value="&lt;span style=&quot;font-size: 18px;&quot;&gt;Data Warehouse&amp;nbsp;&lt;/span&gt;" style="rounded=0;whiteSpace=wrap;html=1;strokeColor=none;" vertex="1" parent="1">
          <mxGeometry x="320" y="80" width="155" height="50" as="geometry" />
        </mxCell>
        <mxCell id="tqkfEehtVtc8zdsrbR30-6" value="" style="rounded=0;whiteSpace=wrap;html=1;fillColor=none;strokeColor=light-dark(#616161, #ededed);dashed=1;" vertex="1" parent="1">
          <mxGeometry x="650" y="110" width="110" height="450" as="geometry" />
        </mxCell>
        <mxCell id="tqkfEehtVtc8zdsrbR30-7" value="&lt;span style=&quot;font-size: 18px;&quot;&gt;Consumers&lt;/span&gt;" style="rounded=0;whiteSpace=wrap;html=1;strokeColor=none;" vertex="1" parent="1">
          <mxGeometry x="655" y="90" width="100" height="30" as="geometry" />
        </mxCell>
        <mxCell id="tqkfEehtVtc8zdsrbR30-8" value="Bronze Layer" style="rounded=0;whiteSpace=wrap;html=1;fillColor=#ffe6cc;strokeColor=#d79b00;" vertex="1" parent="1">
          <mxGeometry x="170" y="120" width="110" height="30" as="geometry" />
        </mxCell>
        <mxCell id="tqkfEehtVtc8zdsrbR30-10" value="" style="rounded=0;whiteSpace=wrap;html=1;fillColor=none;strokeColor=#d79b00;dashed=1;" vertex="1" parent="1">
          <mxGeometry x="170" y="160" width="115" height="360" as="geometry" />
        </mxCell>
        <mxCell id="tqkfEehtVtc8zdsrbR30-11" value="Silver Layer" style="rounded=0;whiteSpace=wrap;html=1;fillColor=#f5f5f5;strokeColor=#666666;gradientColor=#b3b3b3;" vertex="1" parent="1">
          <mxGeometry x="335" y="120" width="110" height="30" as="geometry" />
        </mxCell>
        <mxCell id="tqkfEehtVtc8zdsrbR30-12" value="" style="rounded=0;whiteSpace=wrap;html=1;fillColor=none;strokeColor=#666666;gradientColor=#b3b3b3;dashed=1;" vertex="1" parent="1">
          <mxGeometry x="335" y="160" width="113.75" height="360" as="geometry" />
        </mxCell>
        <mxCell id="tqkfEehtVtc8zdsrbR30-13" value="Gold Layer" style="rounded=0;whiteSpace=wrap;html=1;fillColor=#ffcd28;strokeColor=#d79b00;gradientColor=#ffa500;" vertex="1" parent="1">
          <mxGeometry x="490" y="120" width="110" height="30" as="geometry" />
        </mxCell>
        <mxCell id="tqkfEehtVtc8zdsrbR30-14" value="" style="rounded=0;whiteSpace=wrap;html=1;fillColor=none;strokeColor=#d79b00;gradientColor=#ffa500;dashed=1;" vertex="1" parent="1">
          <mxGeometry x="490" y="160" width="110" height="360" as="geometry" />
        </mxCell>
        <mxCell id="tqkfEehtVtc8zdsrbR30-15" value="CRM" style="image;aspect=fixed;html=1;points=[];align=center;fontSize=12;image=img/lib/azure2/general/Folder_Blank.svg;" vertex="1" parent="1">
          <mxGeometry x="51" y="210" width="44.36" height="36" as="geometry" />
        </mxCell>
        <mxCell id="tqkfEehtVtc8zdsrbR30-16" value="" style="verticalLabelPosition=bottom;html=1;verticalAlign=top;align=center;strokeColor=none;fillColor=#00BEF2;shape=mxgraph.azure.cloud_services_configuration_file;pointerEvents=1;" vertex="1" parent="1">
          <mxGeometry x="80" y="230" width="20" height="20" as="geometry" />
        </mxCell>
        <mxCell id="tqkfEehtVtc8zdsrbR30-18" value="ERP" style="image;aspect=fixed;html=1;points=[];align=center;fontSize=12;image=img/lib/azure2/general/Folder_Blank.svg;" vertex="1" parent="1">
          <mxGeometry x="51" y="310" width="44.36" height="36" as="geometry" />
        </mxCell>
        <mxCell id="tqkfEehtVtc8zdsrbR30-19" value="" style="verticalLabelPosition=bottom;html=1;verticalAlign=top;align=center;strokeColor=none;fillColor=#00BEF2;shape=mxgraph.azure.cloud_services_configuration_file;pointerEvents=1;" vertex="1" parent="1">
          <mxGeometry x="80" y="326" width="20" height="20" as="geometry" />
        </mxCell>
        <mxCell id="tqkfEehtVtc8zdsrbR30-32" value="" style="html=1;verticalLabelPosition=bottom;align=center;labelBackgroundColor=#ffffff;verticalAlign=top;strokeWidth=2;strokeColor=#d79b00;shadow=0;dashed=0;shape=mxgraph.ios7.icons.data;fillColor=#ffe6cc;" vertex="1" parent="1">
          <mxGeometry x="206.5" y="240" width="37" height="39.1" as="geometry" />
        </mxCell>
        <mxCell id="tqkfEehtVtc8zdsrbR30-33" value="" style="html=1;verticalLabelPosition=bottom;align=center;labelBackgroundColor=#ffffff;verticalAlign=top;strokeWidth=2;strokeColor=#666666;shadow=0;dashed=0;shape=mxgraph.ios7.icons.data;fillColor=#f5f5f5;gradientColor=#b3b3b3;" vertex="1" parent="1">
          <mxGeometry x="360" y="240" width="37" height="39.1" as="geometry" />
        </mxCell>
        <mxCell id="tqkfEehtVtc8zdsrbR30-34" value="" style="html=1;verticalLabelPosition=bottom;align=center;labelBackgroundColor=#ffffff;verticalAlign=top;strokeWidth=2;strokeColor=#d79b00;shadow=0;dashed=0;shape=mxgraph.ios7.icons.data;fillColor=#ffcd28;gradientColor=#ffa500;" vertex="1" parent="1">
          <mxGeometry x="526.5" y="240" width="37" height="39.1" as="geometry" />
        </mxCell>
        <mxCell id="tqkfEehtVtc8zdsrbR30-35" value="Raw Data" style="text;html=1;align=center;verticalAlign=middle;whiteSpace=wrap;rounded=0;" vertex="1" parent="1">
          <mxGeometry x="195" y="280" width="60" height="30" as="geometry" />
        </mxCell>
        <mxCell id="tqkfEehtVtc8zdsrbR30-36" value="Cleaned, Satandardised Data" style="text;html=1;align=center;verticalAlign=middle;whiteSpace=wrap;rounded=0;" vertex="1" parent="1">
          <mxGeometry x="348.5" y="290" width="60" height="30" as="geometry" />
        </mxCell>
        <mxCell id="tqkfEehtVtc8zdsrbR30-37" value="Business Ready Data" style="text;html=1;align=center;verticalAlign=middle;whiteSpace=wrap;rounded=0;" vertex="1" parent="1">
          <mxGeometry x="518.5" y="290" width="60" height="30" as="geometry" />
        </mxCell>
        <mxCell id="tqkfEehtVtc8zdsrbR30-38" value="" style="shape=flexArrow;endArrow=classic;html=1;rounded=0;entryX=0;entryY=0;entryDx=0;entryDy=0;exitX=0.727;exitY=0.378;exitDx=0;exitDy=0;exitPerimeter=0;fillColor=#dae8fc;strokeColor=#6c8ebf;" edge="1" parent="1" source="tqkfEehtVtc8zdsrbR30-1" target="tqkfEehtVtc8zdsrbR30-35">
          <mxGeometry width="50" height="50" relative="1" as="geometry">
            <mxPoint x="110" y="310" as="sourcePoint" />
            <mxPoint x="160" y="260" as="targetPoint" />
          </mxGeometry>
        </mxCell>
        <mxCell id="tqkfEehtVtc8zdsrbR30-39" value="" style="shape=flexArrow;endArrow=classic;html=1;rounded=0;entryX=0;entryY=0;entryDx=0;entryDy=0;exitX=0.727;exitY=0.378;exitDx=0;exitDy=0;exitPerimeter=0;fillColor=#dae8fc;strokeColor=#6c8ebf;" edge="1" parent="1">
          <mxGeometry width="50" height="50" relative="1" as="geometry">
            <mxPoint x="275" y="280" as="sourcePoint" />
            <mxPoint x="360" y="280" as="targetPoint" />
          </mxGeometry>
        </mxCell>
        <mxCell id="tqkfEehtVtc8zdsrbR30-40" value="" style="shape=flexArrow;endArrow=classic;html=1;rounded=0;entryX=0;entryY=0;entryDx=0;entryDy=0;exitX=0.727;exitY=0.378;exitDx=0;exitDy=0;exitPerimeter=0;fillColor=#dae8fc;strokeColor=#6c8ebf;" edge="1" parent="1">
          <mxGeometry width="50" height="50" relative="1" as="geometry">
            <mxPoint x="433.5" y="280" as="sourcePoint" />
            <mxPoint x="518.5" y="280" as="targetPoint" />
          </mxGeometry>
        </mxCell>
        <mxCell id="tqkfEehtVtc8zdsrbR30-41" value="" style="endArrow=none;html=1;rounded=0;entryX=0.909;entryY=0.611;entryDx=0;entryDy=0;entryPerimeter=0;" edge="1" parent="1">
          <mxGeometry width="50" height="50" relative="1" as="geometry">
            <mxPoint x="186.75" y="327.75" as="sourcePoint" />
            <mxPoint x="263.24" y="327.71000000000004" as="targetPoint" />
          </mxGeometry>
        </mxCell>
        <mxCell id="tqkfEehtVtc8zdsrbR30-46" value="" style="endArrow=none;html=1;rounded=0;entryX=0.909;entryY=0.611;entryDx=0;entryDy=0;entryPerimeter=0;" edge="1" parent="1">
          <mxGeometry width="50" height="50" relative="1" as="geometry">
            <mxPoint x="348.51" y="339.75" as="sourcePoint" />
            <mxPoint x="425" y="339.71000000000004" as="targetPoint" />
          </mxGeometry>
        </mxCell>
        <mxCell id="tqkfEehtVtc8zdsrbR30-47" value="" style="endArrow=none;html=1;rounded=0;entryX=0.909;entryY=0.611;entryDx=0;entryDy=0;entryPerimeter=0;" edge="1" parent="1">
          <mxGeometry width="50" height="50" relative="1" as="geometry">
            <mxPoint x="510.26" y="339.75" as="sourcePoint" />
            <mxPoint x="586.75" y="339.71000000000004" as="targetPoint" />
          </mxGeometry>
        </mxCell>
        <mxCell id="tqkfEehtVtc8zdsrbR30-48" value="" style="endArrow=none;html=1;rounded=0;entryX=0.909;entryY=0.611;entryDx=0;entryDy=0;entryPerimeter=0;" edge="1" parent="1">
          <mxGeometry width="50" height="50" relative="1" as="geometry">
            <mxPoint x="46.75999999999999" y="390.04" as="sourcePoint" />
            <mxPoint x="123.25" y="390.00000000000006" as="targetPoint" />
          </mxGeometry>
        </mxCell>
        <mxCell id="tqkfEehtVtc8zdsrbR30-51" value="&lt;font style=&quot;font-size: 6px;&quot;&gt;&lt;b&gt;Object Type: &lt;/b&gt;CSV Files&lt;/font&gt;&lt;div&gt;&lt;font style=&quot;font-size: 6px;&quot;&gt;&lt;b&gt;Interface:&lt;/b&gt;&amp;nbsp; Files in Folders&lt;/font&gt;&lt;/div&gt;" style="text;html=1;align=left;verticalAlign=middle;whiteSpace=wrap;rounded=0;" vertex="1" parent="1">
          <mxGeometry x="45" y="400" width="80" height="30" as="geometry" />
        </mxCell>
        <mxCell id="tqkfEehtVtc8zdsrbR30-64" value="&lt;b&gt;Object Type: &lt;/b&gt;Tables&lt;div&gt;&lt;b&gt;Load:&lt;/b&gt;&lt;/div&gt;&lt;div&gt;&lt;br&gt;&lt;/div&gt;&lt;div&gt;--&amp;gt; Batch Processing&amp;nbsp;&lt;/div&gt;&lt;div&gt;--&amp;gt; Full Load&lt;/div&gt;&lt;div&gt;--&amp;gt; Truncate &amp;amp; Insert&lt;/div&gt;&lt;div&gt;&lt;br&gt;&lt;/div&gt;&lt;div&gt;No &lt;b&gt;Transformation&lt;/b&gt;&lt;/div&gt;&lt;div&gt;&lt;br&gt;&lt;/div&gt;&lt;div&gt;&lt;b&gt;Data Model: &lt;/b&gt;None (as-is)&lt;/div&gt;" style="text;html=1;align=left;verticalAlign=top;whiteSpace=wrap;rounded=0;fontSize=4;labelPosition=center;verticalLabelPosition=middle;" vertex="1" parent="1">
          <mxGeometry x="195" y="346" width="60" height="64" as="geometry" />
        </mxCell>
        <mxCell id="tqkfEehtVtc8zdsrbR30-65" value="&lt;b&gt;Object Type: &lt;/b&gt;Tables&lt;div&gt;&lt;b&gt;Load:&lt;/b&gt;&lt;/div&gt;&lt;div&gt;&lt;br&gt;&lt;/div&gt;&lt;div&gt;--&amp;gt; Batch Processing&amp;nbsp;&lt;/div&gt;&lt;div&gt;--&amp;gt; Full Load&lt;/div&gt;&lt;div&gt;--&amp;gt; Truncate &amp;amp; Insert&lt;/div&gt;&lt;div&gt;&lt;br&gt;&lt;/div&gt;&lt;div&gt;&lt;b&gt;Transformation:&lt;/b&gt;&lt;/div&gt;&lt;div&gt;&lt;br&gt;&lt;/div&gt;&lt;div&gt;--&amp;gt; Data Cleansing&amp;nbsp;&lt;/div&gt;&lt;div&gt;--&amp;gt; Data Standardisation&lt;/div&gt;&lt;div&gt;--&amp;gt; Data Normalization&lt;/div&gt;&lt;div&gt;--&amp;gt; Derived Columns&lt;/div&gt;&lt;div&gt;--&amp;gt; Data Enrichment&lt;/div&gt;&lt;div&gt;&lt;br&gt;&lt;/div&gt;&lt;div&gt;&lt;br&gt;&lt;/div&gt;&lt;div&gt;&lt;b&gt;Data Model: &lt;/b&gt;None (as-is)&lt;/div&gt;" style="text;html=1;align=left;verticalAlign=top;whiteSpace=wrap;rounded=0;fontSize=4;labelPosition=center;verticalLabelPosition=middle;" vertex="1" parent="1">
          <mxGeometry x="360" y="356" width="60" height="94" as="geometry" />
        </mxCell>
        <mxCell id="tqkfEehtVtc8zdsrbR30-67" value="&lt;b&gt;Object Type: &lt;/b&gt;Views&lt;div&gt;&lt;br&gt;&lt;div&gt;&lt;b&gt;No Load&lt;/b&gt;&lt;/div&gt;&lt;div&gt;&lt;b&gt;&lt;br&gt;&lt;/b&gt;&lt;/div&gt;&lt;div&gt;&lt;b&gt;Transformations:&lt;/b&gt;&lt;/div&gt;&lt;div&gt;&lt;br&gt;&lt;/div&gt;&lt;div&gt;--&amp;gt; Data Integrations&amp;nbsp;&lt;/div&gt;&lt;div&gt;&lt;br&gt;&lt;/div&gt;&lt;div&gt;--&amp;gt; Aggregatsions&lt;/div&gt;&lt;div&gt;&lt;br&gt;&lt;/div&gt;&lt;div&gt;--&amp;gt; Business Logics&lt;/div&gt;&lt;div&gt;&lt;br&gt;&lt;/div&gt;&lt;div&gt;&lt;b&gt;Data Model:&amp;nbsp;&lt;/b&gt;&lt;/div&gt;&lt;/div&gt;&lt;div&gt;&lt;b&gt;&lt;br&gt;&lt;/b&gt;&lt;/div&gt;&lt;div&gt;-- &amp;gt; Star Schema&lt;/div&gt;&lt;div&gt;--&amp;gt; Flat Table&amp;nbsp;&lt;/div&gt;&lt;div&gt;--&amp;gt; Aggregated Table&lt;/div&gt;" style="text;html=1;align=left;verticalAlign=top;whiteSpace=wrap;rounded=0;fontSize=4;labelPosition=center;verticalLabelPosition=middle;" vertex="1" parent="1">
          <mxGeometry x="518.5" y="346" width="60" height="94" as="geometry" />
        </mxCell>
        <mxCell id="tqkfEehtVtc8zdsrbR30-68" value="BI &amp;amp; Reporting" style="image;aspect=fixed;html=1;points=[];align=center;fontSize=12;image=img/lib/azure2/power_platform/PowerBI.svg;" vertex="1" parent="1">
          <mxGeometry x="692.9" y="160" width="30" height="40" as="geometry" />
        </mxCell>
        <mxCell id="tqkfEehtVtc8zdsrbR30-69" value="&lt;font style=&quot;font-size: 10px;&quot;&gt;Ad-Hoc Sql Queries&lt;/font&gt;" style="sketch=0;outlineConnect=0;fontColor=#232F3E;gradientColor=none;fillColor=#8C4FFF;strokeColor=none;dashed=0;verticalLabelPosition=bottom;verticalAlign=top;align=center;html=1;fontSize=12;fontStyle=0;aspect=fixed;pointerEvents=1;shape=mxgraph.aws4.athena_data_source_connectors;" vertex="1" parent="1">
          <mxGeometry x="683.22" y="246" width="49.35" height="50" as="geometry" />
        </mxCell>
        <mxCell id="tqkfEehtVtc8zdsrbR30-71" value="" style="shape=flexArrow;endArrow=classic;html=1;rounded=0;entryX=0;entryY=0;entryDx=0;entryDy=0;exitX=0.727;exitY=0.378;exitDx=0;exitDy=0;exitPerimeter=0;fillColor=#dae8fc;strokeColor=#6c8ebf;" edge="1" parent="1">
          <mxGeometry width="50" height="50" relative="1" as="geometry">
            <mxPoint x="580" y="278.41" as="sourcePoint" />
            <mxPoint x="665" y="278.41" as="targetPoint" />
          </mxGeometry>
        </mxCell>
        <mxCell id="tqkfEehtVtc8zdsrbR30-72" value="" style="points=[];aspect=fixed;html=1;align=center;shadow=0;dashed=0;fillColor=#FF6A00;strokeColor=none;shape=mxgraph.alibaba_cloud.machine_learning;" vertex="1" parent="1">
          <mxGeometry x="683.22" y="367.95" width="49.8" height="50.099999999999994" as="geometry" />
        </mxCell>
        <mxCell id="tqkfEehtVtc8zdsrbR30-73" value="Machine Learning" style="text;html=1;align=left;verticalAlign=top;whiteSpace=wrap;rounded=0;fontSize=9;" vertex="1" parent="1">
          <mxGeometry x="669.06" y="418.05" width="78.12" height="20" as="geometry" />
        </mxCell>
        <mxCell id="tqkfEehtVtc8zdsrbR30-74" value="&lt;h1 style=&quot;margin-top: 0px;&quot;&gt;Data Architecture&lt;/h1&gt;" style="text;html=1;whiteSpace=wrap;overflow=hidden;rounded=0;" vertex="1" parent="1">
          <mxGeometry x="15" y="10" width="205" height="40" as="geometry" />
        </mxCell>
      </root>
    </mxGraphModel>
  </diagram>
</mxfile>
